{"glyphs":{":":{"x_min":0,"x_max":256,"ha":256,"o":"m 254 251 b 258 274 242 292 220 292 b 197 292 175 274 172 251 b 168 228 183 210 206 210 b 229 210 250 228 254 251 z m 144 27 b 148 50 133 68 110 68 b 87 68 66 50 62 27 b 58 4 74 -14 96 -14 b 119 -14 141 4 144 27 z"},"$":{"x_min":0,"x_max":449,"ha":449,"o":"m 475 487 b 475 524 455 563 401 572 l 434 633 l 402 627 l 374 575 b 284 575 157 528 157 420 b 157 372 188 329 217 293 l 68 21 b 28 29 -11 47 -40 77 l -49 77 b -53 73 -66 59 -67 53 b -43 21 18 7 56 0 l 21 -61 l 55 -55 l 83 -2 b 193 -2 339 64 339 192 b 339 247 304 298 272 340 l 389 552 b 417 546 446 532 452 492 b 449 500 432 509 421 509 b 395 509 377 491 376 467 b 375 442 395 421 420 421 b 452 421 475 452 475 487 z m 364 556 l 256 362 b 239 390 220 412 220 446 b 220 512 290 557 350 557 b 355 557 359 556 364 556 z m 276 174 b 276 80 180 18 94 18 l 235 272 b 256 244 276 210 276 174 z"},"?":{"x_min":0,"x_max":382,"ha":382,"o":"m 424 444 b 579 619 426 696 287 617 b 260 601 227 580 214 551 b 185 482 247 440 300 481 b 346 517 319 586 260 554 b 244 545 229 534 225 518 b 221 542 251 572 281 587 b 378 634 470 580 382 469 b 308 376 205 267 181 167 b 178 154 195 148 200 160 b 251 295 338 346 424 444 z m 202 27 b 206 50 190 68 168 68 b 145 68 123 50 120 27 b 116 4 131 -14 154 -14 b 177 -14 198 4 202 27 z"},"<":{"x_min":0,"x_max":329,"ha":329,"o":"m 333 297 l 332 304 l 325 307 b 314 308 134 192 112 179 b 124 129 131 71 150 24 b 152 22 155 21 158 21 l 165 24 l 170 34 l 171 170 b 199 191 315 267 333 297 z"},"'":{"x_min":0,"x_max":158,"ha":158,"o":"m 188 504 b 188 530 176 559 147 559 b 124 559 103 540 99 518 b 95 495 111 476 133 476 b 144 476 153 480 162 486 b 156 441 122 412 85 399 b 73 395 75 384 88 388 b 130 402 188 439 188 504 z"},"=":{"x_min":0,"x_max":458,"ha":458,"o":"m 409 322 b 409 343 325 342 311 342 l 164 342 b 153 342 147 333 147 323 b 147 314 152 294 164 294 b 190 294 215 300 241 303 b 291 308 342 311 392 311 b 399 311 409 313 409 322 z m 409 222 b 409 243 325 242 311 242 l 164 242 b 153 242 147 233 147 223 b 147 214 152 194 164 194 b 190 194 215 200 241 203 b 291 208 342 211 392 211 b 399 211 409 213 409 222 z"},"a":{"x_min":0,"x_max":350,"ha":350,"o":"m 421 184 b 431 204 416 210 407 192 b 386 149 320 22 278 24 b 265 24 260 43 268 84 b 281 145 340 250 361 271 b 347 268 332 274 319 275 b 287 277 273 253 251 211 b 225 162 197 113 162 71 b 115 15 60 7 70 77 b 76 115 103 164 111 178 b 147 237 199 296 244 321 b 281 341 318 333 329 296 b 346 293 354 310 340 325 b 283 387 168 350 108 279 b -43 98 33 -77 148 33 b 177 61 204 101 220 127 b 190 22 237 -4 270 -2 b 330 3 391 123 421 184 z"},"L":{"x_min":0,"x_max":712,"ha":712,"o":"m 957 783 b 950 865 745 940 597 559 b 597 559 524 372 512 345 b 191 307 258 658 464 683 b 508 689 504 710 462 700 b 120 622 210 311 498 320 b 462 246 431 186 393 127 b 320 140 213 137 142 116 b -127 35 15 -191 224 -90 b 289 -59 349 0 401 73 b 528 48 666 19 763 -67 b 831 -126 828 -227 812 -262 b 804 -279 782 -315 825 -292 b 833 -288 842 -280 850 -265 b 875 -223 854 -105 759 -31 b 666 41 529 94 431 118 l 452 152 b 488 216 511 265 540 324 b 753 360 974 581 957 783 z m 916 761 b 917 576 734 391 554 351 b 595 436 642 525 642 525 b 797 828 915 828 916 761 z m 362 79 b 314 11 262 -36 208 -62 b 25 -150 -88 13 154 75 b 219 92 296 93 362 79 z"},"3":{"x_min":0,"x_max":458,"ha":458,"o":"m 486 516 b 486 561 450 578 410 578 b 335 578 273 523 228 468 l 228 463 l 235 457 l 240 457 b 272 493 326 546 378 546 b 402 546 417 535 417 510 b 417 413 260 337 187 308 l 183 303 l 184 294 l 191 291 b 213 297 238 305 261 305 b 299 305 331 284 331 243 b 331 137 195 11 92 11 b 71 11 41 17 22 26 l 17 24 l 10 18 l 10 13 b 36 -6 72 -11 103 -11 b 217 -11 399 112 399 235 b 399 307 323 327 264 327 b 342 355 486 416 486 516 z"},";":{"x_min":0,"x_max":255,"ha":255,"o":"m 254 251 b 258 274 242 292 220 292 b 197 292 175 274 172 251 b 168 228 183 210 206 210 b 229 210 250 228 254 251 z m 151 14 b 151 40 139 68 110 68 b 87 68 66 50 62 27 b 58 4 74 -14 96 -14 b 107 -14 116 -10 125 -4 b 119 -49 85 -79 48 -91 b 36 -95 38 -107 51 -102 b 93 -88 151 -52 151 14 z"},"J":{"x_min":0,"x_max":966,"ha":966,"o":"m 1270 774 b 1270 801 1244 808 1214 800 b 1181 790 1142 735 1133 720 b 950 697 614 603 577 372 b 558 254 651 181 758 218 b 842 248 905 346 872 423 b 856 443 835 425 851 415 b 866 399 866 280 759 242 b 675 211 630 274 644 366 b 676 560 955 668 1116 694 b 1094 659 1026 545 956 390 b 862 182 691 -254 340 -332 b 179 -367 -85 -284 -22 -65 b 1 17 69 78 104 92 b 115 97 126 107 105 106 b 73 105 -10 44 -37 -21 b -142 -271 68 -403 352 -364 b 482 -346 696 -242 813 -60 b 992 218 1016 476 1146 698 b 1155 698 1177 706 1189 706 b 1228 718 1269 733 1270 774 z m 1222 771 b 1233 771 1253 738 1164 723 b 1181 741 1211 776 1222 771 z"},"V":{"x_min":0,"x_max":975,"ha":975,"o":"m 1032 389 b 1089 537 1001 606 952 619 b 912 629 913 599 948 592 b 971 588 987 593 996 541 b 1016 419 927 257 820 132 b 786 92 505 -206 544 20 b 560 111 608 268 672 398 b 749 556 793 760 647 824 b 470 902 130 751 22 504 b -71 291 62 135 200 135 b 325 135 491 267 491 394 b 491 470 436 526 351 486 b 332 477 326 463 356 472 b 423 492 447 446 447 392 b 447 282 328 161 216 161 b 103 161 -1 263 75 472 b 157 695 489 893 651 793 b 729 745 658 533 606 410 b 472 90 447 -79 530 -94 b 659 -117 936 136 1032 389 z"},"\"":{"x_min":0,"x_max":318,"ha":318,"o":"m 331 637 b 329 650 322 657 308 657 b 290 657 277 644 279 625 l 287 459 l 297 459 b 304 489 337 608 331 637 z m 222 638 b 220 651 212 657 200 657 b 183 657 169 641 170 624 l 179 459 l 189 459 b 197 490 228 608 222 638 z"},"7":{"x_min":0,"x_max":488,"ha":488,"o":"m 578 562 l 574 568 b 569 568 558 561 554 558 b 507 564 459 565 412 565 b 293 565 272 541 218 435 l 218 429 l 221 427 b 251 429 252 499 340 499 b 393 499 446 496 499 495 b 450 449 20 41 10 2 l 11 -2 l 17 -5 b 37 -3 72 -3 89 5 b 95 7 149 78 156 86 b 227 176 301 264 380 347 b 446 416 514 484 576 555 z"},"S":{"x_min":0,"x_max":901,"ha":901,"o":"m 900 622 b 962 673 938 755 867 790 b 795 826 646 820 546 785 b 400 733 309 585 458 486 b 533 436 667 400 729 350 b 850 252 779 80 611 -8 b 411 -112 52 -86 54 162 b 55 226 74 293 110 349 b 128 378 152 403 179 424 b 212 449 183 445 169 439 b 71 393 -7 257 -2 162 b 15 -120 441 -148 667 -13 b 836 88 970 276 766 402 b 692 448 591 483 530 520 b 395 603 465 715 584 758 b 906 873 963 625 838 610 b 805 606 806 583 833 590 b 862 598 884 609 900 622 z"},"}":{"x_min":0,"x_max":485,"ha":485,"o":"m 477 304 b 426 309 394 320 381 337 b 333 400 477 614 420 687 b 402 711 359 722 291 722 l 286 722 b 286 722 260 699 280 699 b 328 699 358 690 370 672 b 382 654 380 621 365 572 b 351 524 303 395 327 344 b 341 317 372 299 423 290 b 365 279 322 261 293 235 b 208 157 213 -24 140 -82 b 118 -100 82 -109 34 -109 b 21 -109 14 -130 26 -131 l 31 -131 b 96 -131 145 -120 178 -97 b 284 -23 264 178 349 242 b 380 266 420 277 468 277 b 468 277 494 303 477 304 z"},"Z":{"x_min":0,"x_max":677,"ha":677,"o":"m 1046 661 b 1112 717 1061 781 978 752 b 947 741 908 717 867 685 b 756 719 613 775 490 765 b 257 747 243 593 298 532 b 313 515 330 504 338 502 b 348 499 385 497 350 521 b 246 590 345 676 430 698 b 549 729 730 703 848 670 b 773 609 691 526 635 460 b 557 365 297 61 297 61 b 228 105 184 125 154 133 b -12 177 -34 -8 92 -37 b 139 -47 205 -30 292 32 b 292 32 616 -161 763 -158 b 958 -154 994 -51 998 -13 b 1004 44 980 34 975 2 b 959 -112 774 -109 698 -94 b 591 -73 317 46 317 46 b 390 106 516 205 630 346 b 705 439 812 595 884 661 b 956 643 1015 635 1046 661 z m 1028 669 b 1002 653 956 660 899 676 b 945 715 986 741 1017 741 b 1053 741 1057 687 1028 669 z m 278 42 b 250 18 196 -6 150 -8 b 25 -12 27 117 146 104 b 172 101 207 88 248 65 b 258 58 278 42 278 42 z"},"x":{"x_min":0,"x_max":333,"ha":333,"o":"m 405 187 b 412 201 400 211 390 192 b 352 119 303 11 239 25 b 214 30 202 76 212 134 b 233 198 280 270 320 308 b 323 298 332 291 345 291 b 363 291 381 305 385 323 b 391 350 367 358 345 353 b 316 345 261 276 226 209 b 237 265 240 329 186 335 b 167 337 148 327 130 312 b 104 288 63 204 44 164 b 34 143 44 135 53 151 b 65 172 103 246 115 266 b 153 328 180 312 180 281 b 181 256 176 232 171 205 b 143 113 77 15 37 -4 b 15 -14 -3 -14 -14 -4 b -23 6 -40 -10 -31 -20 b -11 -40 20 -36 44 -24 b 80 -7 125 52 159 118 b 158 112 158 105 158 98 b 156 54 181 0 231 0 b 327 0 372 121 405 187 z"},")":{"x_min":0,"x_max":518,"ha":518,"o":"m 492 380 b 551 609 445 780 303 763 b 270 759 270 738 297 741 b 445 758 484 556 424 371 b 387 255 266 30 38 -30 b 8 -38 4 -59 37 -51 b 267 8 454 233 492 380 z"},"&":{"x_min":0,"x_max":606,"ha":606,"o":"m 731 420 b 724 431 713 423 720 412 b 773 333 586 283 539 283 l 362 283 b 159 283 107 139 282 45 b 294 39 293 60 282 66 b 231 93 211 127 216 158 b 235 272 508 274 503 163 b 499 84 402 -32 261 -32 b 28 -32 77 346 314 381 b 335 360 371 337 415 337 b 485 337 476 395 418 400 b 388 402 356 398 335 398 b 304 463 362 553 408 594 b 475 652 550 677 603 676 b 639 675 678 661 670 616 b 667 625 649 634 637 634 b 610 635 590 616 589 589 b 588 563 609 541 636 541 b 670 541 697 577 697 615 b 697 682 632 702 577 703 b 453 705 276 627 273 485 b 273 454 283 420 301 395 b -57 357 -98 -45 261 -45 b 482 -45 627 161 518 251 b 651 249 792 329 731 420 z m 417 383 b 453 380 464 354 415 354 b 382 354 358 365 343 384 b 367 385 391 385 417 383 z"},"_":{"x_min":0,"x_max":806,"ha":806,"o":"m 793 -53 b 792 -39 780 -25 765 -25 l 25 -25 b 14 -25 8 -34 8 -44 b 8 -53 13 -73 25 -73 b 90 -73 154 -68 219 -67 b 408 -63 597 -60 786 -60 z"},"v":{"x_min":0,"x_max":262,"ha":262,"o":"m 320 336 b 339 380 263 380 235 291 b 226 264 229 222 243 191 b 203 92 149 8 101 29 b 75 41 100 115 125 181 b 138 214 153 269 154 302 b 156 351 147 346 118 343 b 110 342 69 335 69 335 b 96 328 86 250 66 211 l 48 177 b 42 163 55 157 66 174 b 38 97 13 7 73 -5 b 211 -33 295 259 318 331 b 318 333 319 335 320 336 z"},"O":{"x_min":0,"x_max":726,"ha":726,"o":"m 904 547 b 919 571 896 572 889 558 b 864 509 813 468 759 432 b 779 926 12 841 51 457 b 56 402 85 360 128 331 b 60 157 117 -11 231 -48 b 443 -117 670 101 732 290 b 744 328 752 363 755 397 b 818 437 867 489 904 547 z m 698 400 b 535 312 315 280 197 338 b 239 432 396 663 521 624 b 534 620 544 630 529 638 b 378 723 201 488 146 372 b 124 391 110 417 106 448 b 53 805 745 928 698 400 z m 692 365 b 689 342 682 317 674 294 b 605 98 409 -102 234 -16 b 137 32 134 177 182 303 b 314 250 527 277 692 365 z"},"(":{"x_min":0,"x_max":350,"ha":350,"o":"m 496 755 b 266 696 80 471 41 324 b -18 95 88 -76 230 -59 b 263 -55 263 -34 237 -37 b 88 -55 49 148 109 333 b 146 449 267 674 496 734 b 525 742 529 763 496 755 z"},"C":{"x_min":0,"x_max":710,"ha":710,"o":"m 780 183 b 790 203 776 210 768 193 b 726 107 691 42 604 -9 b 505 -68 376 -83 269 -51 b 9 29 173 434 209 481 b 261 373 353 326 457 311 b 869 251 1011 732 621 776 b 463 794 313 732 205 593 b 195 647 186 720 197 783 b 202 811 181 805 177 788 b 157 714 165 621 181 559 b 42 384 -21 36 230 -70 b 375 -132 517 -95 619 -25 b 704 35 737 95 780 183 z m 630 738 b 922 696 833 295 472 335 b 363 347 274 398 229 513 b 328 664 481 760 630 738 z"},"W":{"x_min":0,"x_max":1344,"ha":1344,"o":"m 1346 225 b 1441 468 1325 623 1197 612 b 1151 621 1093 564 1183 588 b 1342 610 1367 431 1284 234 b 1200 34 836 -201 872 86 b 883 170 946 287 972 362 b 1000 445 958 469 906 396 b 819 275 682 -14 560 -86 b 520 -110 494 -99 508 -30 b 527 65 593 246 652 378 b 723 538 768 725 623 789 b 446 867 123 712 16 465 b -96 209 100 49 257 114 b 502 217 529 522 308 454 b 286 447 279 433 310 438 b 487 467 398 189 259 138 b 126 89 -21 177 72 428 b 155 652 464 857 627 757 b 705 709 631 497 580 374 b 505 195 456 64 450 -20 b 444 -102 480 -126 520 -124 b 630 -119 788 111 844 203 b 832 163 821 109 824 60 b 843 -204 1244 -34 1346 225 z"},"A":{"x_min":0,"x_max":712,"ha":712,"o":"m 860 646 b 860 720 795 773 688 773 b 493 773 326 652 200 512 b 164 529 134 550 112 575 b 89 601 78 624 91 654 b 102 678 85 689 73 673 b 51 657 54 592 82 560 b 107 532 142 510 182 491 b 148 452 119 409 94 364 b -6 183 -6 6 90 -35 b 232 -96 419 95 501 192 b 456 133 431 -64 542 -64 b 598 -64 655 -24 689 22 b 726 71 764 142 782 182 b 793 206 774 205 765 186 b 743 136 709 84 678 44 b 599 -54 500 -79 531 90 b 549 188 606 295 662 358 b 720 421 667 502 605 386 b 552 288 446 158 343 71 b 159 -82 0 -37 102 218 b 138 307 211 419 247 470 b 341 440 436 437 549 447 b 782 468 860 573 860 646 z m 819 658 b 819 559 715 485 549 471 b 422 460 341 465 263 490 b 375 624 504 747 691 747 b 764 747 819 717 819 658 z"},"f":{"x_min":0,"x_max":198,"ha":198,"o":"m 363 621 b 348 619 331 626 319 626 b 277 626 256 599 234 556 b 179 453 101 291 29 129 b 16 131 3 126 -7 118 b -26 104 -35 61 -14 29 b -73 -110 -119 -231 -117 -296 b -116 -336 -93 -347 -65 -348 b 43 -353 119 -141 107 -1 b 178 -1 233 104 270 188 b 277 203 262 208 255 195 b 222 125 165 14 105 18 l 102 31 b 95 66 83 90 70 106 b 170 331 300 562 363 621 z m 86 -5 b 88 -94 52 -217 3 -281 b -36 -333 -82 -352 -55 -236 b -39 -170 -7 -77 28 11 b 41 0 66 -7 86 -5 z m 84 14 l 78 14 b 60 14 44 22 38 33 l 60 83 b 65 77 71 68 75 59 b 80 46 83 31 84 14 z"},"Q":{"x_min":0,"x_max":752,"ha":752,"o":"m 529 638 b 332 749 7 346 118 69 b 184 -98 374 -88 505 -2 b 872 240 902 876 312 776 b 145 748 33 598 107 447 b 120 421 136 431 131 453 b 93 608 160 733 316 754 b 758 812 855 298 503 32 b 371 -68 208 -83 161 81 b 99 304 364 672 521 624 b 534 620 544 630 529 638 z m 665 -369 b 920 -369 877 -145 644 -108 b 625 -105 627 -124 647 -127 b 838 -158 882 -381 665 -339 b 365 -281 289 -61 111 -61 b 66 -61 31 -105 29 -132 b 28 -152 43 -158 45 -138 b 48 -109 86 -91 111 -91 b 267 -91 313 -369 665 -369 z"},"w":{"x_min":0,"x_max":476,"ha":476,"o":"m 500 337 b 518 380 446 381 420 292 b 412 265 414 223 428 192 b 390 96 338 14 281 18 b 217 22 290 177 302 202 b 328 257 336 272 357 307 b 369 328 389 336 397 344 l 336 344 b 318 344 305 339 298 323 b 275 275 197 101 136 42 b 86 -6 54 38 97 131 b 115 169 160 260 160 260 b 187 315 201 327 224 344 l 163 344 b 144 344 132 339 124 323 b 109 292 88 252 68 213 l 50 178 b 44 165 53 162 59 162 b 41 126 16 89 25 46 b 31 17 59 0 87 0 b 142 0 197 93 220 135 b 207 92 201 12 255 0 b 400 -31 477 262 498 332 b 498 334 499 336 500 337 z"},"-":{"x_min":0,"x_max":406,"ha":406,"o":"m 388 211 b 415 211 407 237 384 238 b 268 241 206 242 164 242 b 135 242 150 192 164 194 b 224 201 296 211 388 211 z"},"E":{"x_min":0,"x_max":815,"ha":815,"o":"m 793 257 b 760 273 726 255 772 244 b 827 231 791 161 717 103 b 631 36 482 -33 328 -33 b -16 -33 62 303 271 361 b 398 397 522 352 534 392 b 549 463 297 413 324 570 b 347 698 555 793 711 778 b 894 759 783 581 691 571 b 646 566 637 540 694 553 b 896 598 948 775 715 802 b 556 820 263 717 248 545 b 243 486 312 440 368 420 b 336 419 301 413 267 403 b -60 305 -79 -55 324 -55 b 489 -55 659 -2 758 76 b 846 145 866 220 793 257 z"},"s":{"x_min":0,"x_max":256,"ha":256,"o":"m 329 189 b 334 199 319 205 314 195 b 293 154 262 92 239 64 b 214 34 183 13 149 18 l 142 19 b 181 45 211 91 213 130 b 215 174 193 210 177 248 b 162 284 152 353 198 375 b 208 380 220 378 230 374 b 248 365 252 382 234 391 b 224 396 212 398 197 396 b 162 391 132 349 114 310 b 88 253 55 188 28 137 b -20 135 -43 -4 78 -4 b 91 -4 105 0 119 6 b 232 -28 292 106 329 189 z m 152 130 b 149 77 130 43 108 26 b 85 37 64 65 66 103 b 67 136 45 135 45 135 b 69 179 112 266 139 320 b 131 275 155 193 152 130 z m 91 17 b 85 14 78 13 71 13 b 32 13 19 60 51 92 b 53 54 70 30 91 17 z"},">":{"x_min":0,"x_max":329,"ha":329,"o":"m 248 150 b 237 199 231 256 212 303 l 203 307 l 195 303 b 193 301 192 297 190 294 l 189 158 b 185 155 27 48 27 27 l 28 23 b 30 22 34 21 36 21 l 43 22 z"},"l":{"x_min":0,"x_max":212,"ha":212,"o":"m 317 493 b 389 653 281 667 210 548 b 152 451 89 307 58 195 b 41 135 -7 -2 105 -2 b 206 -2 258 133 283 186 b 292 206 277 208 268 191 b 255 165 227 111 194 64 b 141 -10 61 7 91 127 b 97 152 107 176 112 193 b 210 282 271 390 317 493 z m 302 508 b 263 415 191 297 120 225 b 151 305 229 484 278 553 b 332 630 322 554 302 508 z"},"8":{"x_min":0,"x_max":420,"ha":420,"o":"m 461 500 b 461 554 419 577 369 577 b 283 577 201 502 201 414 b 201 387 207 359 218 334 b 148 282 14 180 14 86 b 14 22 70 -11 128 -11 b 224 -11 329 72 329 172 b 329 216 328 244 310 284 b 368 335 461 417 461 500 z m 425 501 b 425 427 357 349 303 305 b 288 345 266 403 266 447 b 266 502 313 557 370 557 b 405 557 425 536 425 501 z m 265 157 b 265 85 205 10 130 10 b 84 10 60 39 60 83 b 60 179 153 263 223 315 b 242 269 265 206 265 157 z"},"\\":{"x_min":0,"x_max":867,"ha":867,"o":"m 859 -34 b 858 -28 854 -24 850 -19 b 687 150 571 327 433 513 b 329 652 203 790 92 790 b 64 790 30 783 20 754 l 27 747 b 41 751 55 761 69 761 b 249 761 669 14 852 -40 z"},"e":{"x_min":0,"x_max":246,"ha":246,"o":"m 318 187 b 328 208 308 206 300 188 b 277 135 223 17 135 17 b 69 17 86 118 101 154 b 128 154 193 175 224 198 b 288 247 317 315 279 344 b 235 377 159 339 108 279 b 64 227 30 152 31 92 b 32 29 77 -4 127 -4 b 238 -4 281 107 318 187 z m 214 215 b 178 185 126 171 108 171 b 117 189 142 233 168 265 b 291 414 296 284 214 215 z"},"b":{"x_min":0,"x_max":345,"ha":345,"o":"m 262 569 b 176 441 44 142 -24 52 b -30 43 -24 32 -16 39 b 4 58 44 130 90 217 b 70 176 54 138 46 107 b 28 35 70 -24 184 7 b 268 29 329 124 347 208 b 360 272 340 338 267 349 b 222 356 223 326 253 329 b 316 335 317 271 291 205 b 274 165 244 114 216 81 b 181 39 153 19 130 24 b 62 38 105 179 156 280 b 223 413 340 576 376 614 b 362 611 347 617 334 618 l 329 618 b 307 619 286 604 262 569 z"},"%":{"x_min":0,"x_max":621,"ha":621,"o":"m 620 661 b 620 672 597 667 594 665 b 580 657 458 511 413 476 b 340 418 266 382 238 432 b 308 497 422 728 273 732 b 206 733 122 655 83 564 b 45 475 56 383 132 381 b 162 380 192 394 219 415 b 272 360 359 406 437 473 b 285 285 134 97 -33 -79 l -32 -84 l 5 -84 z m 490 321 b 423 323 339 245 300 153 b 262 64 273 -27 349 -29 b 489 -33 666 317 490 321 z m 294 698 b 358 680 284 521 255 480 b 257 484 257 487 257 491 b 257 508 244 521 227 521 b 203 521 193 501 193 478 b 192 463 198 445 208 429 b 184 409 160 399 140 405 b 104 415 114 485 152 567 b 190 647 251 710 294 698 z m 522 173 b 507 131 486 88 472 70 b 448 40 403 -19 357 -6 b 321 4 331 74 369 157 b 407 236 468 300 512 287 b 547 277 540 225 522 173 z"},"m":{"x_min":0,"x_max":507,"ha":507,"o":"m 578 184 b 588 204 572 211 564 193 b 543 147 479 20 427 20 b 414 20 403 29 410 70 b 424 140 530 328 530 328 b 497 340 393 277 345 234 b 315 207 282 169 262 144 b 286 193 317 242 335 284 b 344 304 338 321 320 328 b 286 340 222 277 174 234 b 143 207 111 169 91 144 b 127 216 182 316 212 332 b 198 329 183 335 170 336 b 138 338 125 321 99 273 b 50 183 11 90 -37 -5 b -27 1 -18 0 -4 1 b 18 1 27 2 34 17 b 91 127 138 181 172 212 b 277 310 245 237 212 169 b 195 132 177 99 170 55 b 165 26 179 0 202 0 b 215 60 300 172 343 212 b 420 284 438 257 414 218 b 386 173 367 139 359 113 b 329 20 377 -4 413 -4 b 489 -4 548 123 578 184 z"},"#":{"x_min":0,"x_max":746,"ha":746,"o":"m 719 465 l 571 465 l 710 696 l 656 696 l 517 465 l 377 465 l 517 696 l 462 696 l 324 465 l 154 465 l 125 417 l 295 417 l 211 276 l 55 276 l 25 229 l 183 229 l 45 0 l 98 0 l 237 229 l 375 229 l 238 0 l 291 0 l 430 229 l 591 229 l 620 276 l 459 276 l 542 417 l 691 417 z m 488 417 l 404 276 l 264 276 l 349 417 z"},",":{"x_min":0,"x_max":153,"ha":153,"o":"m 114 20 b 114 46 99 68 70 68 b 47 68 25 50 22 27 b 18 4 33 -14 56 -14 b 66 -14 76 -10 84 -4 b 79 -49 45 -79 8 -91 b -5 -95 -2 -107 10 -102 b 52 -88 114 -46 114 20 z"},"n":{"x_min":0,"x_max":335,"ha":335,"o":"m 406 184 b 416 204 400 211 392 193 b 371 151 307 20 255 20 b 242 20 231 29 239 70 b 252 140 359 328 359 328 b 325 340 222 277 174 234 b 143 207 111 169 91 144 b 127 216 182 316 212 332 b 198 329 183 335 170 336 b 138 338 125 321 99 273 b 50 183 9 88 -39 -7 b -29 -1 -20 -2 -5 -1 b 16 -1 25 0 33 14 b 89 125 138 181 172 212 b 249 284 267 257 243 218 b 215 173 196 139 188 113 b 158 20 206 -4 241 -4 b 318 -4 376 123 406 184 z"},"h":{"x_min":0,"x_max":332,"ha":332,"o":"m 402 183 b 412 204 397 211 388 193 b 367 150 299 14 253 17 b 240 18 230 29 238 70 b 251 140 358 328 358 328 b 324 340 221 277 173 234 b 146 211 119 180 92 146 b 174 313 304 558 348 603 b 334 601 319 606 306 607 b 274 609 258 586 235 544 b 138 365 41 161 -40 -7 b -30 -1 -21 -2 -6 -1 b 15 -1 24 0 31 14 b 88 125 137 181 171 212 b 248 284 266 257 242 218 b 214 173 195 139 187 113 b 157 20 205 -4 240 -4 b 314 -4 369 114 402 183 z"},"z":{"x_min":0,"x_max":341,"ha":341,"o":"m 412 184 b 422 204 407 210 398 192 b 359 110 310 26 244 13 b 249 29 255 72 255 86 b 254 123 236 152 186 151 b 249 189 282 245 284 289 b 288 370 159 381 98 270 b 76 230 57 191 39 156 b 28 133 43 128 51 145 b 66 177 92 225 104 245 b 165 350 265 288 218 216 b 205 196 172 148 106 128 b 90 123 98 103 114 109 b 130 115 145 121 158 128 b 216 138 192 37 177 -11 b 50 -51 -120 -92 -174 -173 b -227 -255 -162 -333 -60 -303 b 84 -261 187 -152 238 -12 b 323 5 366 91 412 184 z m 168 -36 b 114 -178 -13 -269 -91 -286 b -196 -308 -168 -174 -80 -123 b -22 -88 79 -64 168 -36 z"},"B":{"x_min":0,"x_max":1041,"ha":1041,"o":"m 1066 488 b 1134 604 1032 693 860 737 b 862 742 876 755 889 764 b 913 779 911 792 879 779 b 862 773 841 760 824 745 b 708 770 569 774 430 754 b 78 704 -17 414 187 343 b 275 312 384 368 399 467 l 399 468 b 399 490 378 482 378 476 b 383 447 315 330 197 367 b 49 413 140 653 417 712 b 552 741 689 742 800 723 l 743 658 b 572 468 500 200 367 72 b 304 103 259 132 222 146 b -3 225 -72 -11 132 -36 b 223 -48 310 -23 387 34 b 449 6 526 -19 653 -35 b 833 -57 1084 59 1030 242 b 1008 317 907 363 841 384 b 916 387 1023 415 1066 488 z m 942 681 b 1126 595 959 414 835 412 b 757 412 690 432 690 398 b 700 376 798 363 876 325 b 1070 232 913 -32 652 -8 b 549 2 471 26 409 52 l 447 88 b 580 232 714 528 848 712 b 883 704 915 694 942 681 z m 345 53 b 292 13 230 -11 157 -8 b 27 -1 44 173 197 120 b 256 99 299 75 345 53 z"},"K":{"x_min":0,"x_max":1144,"ha":1144,"o":"m 1621 816 b 1638 844 1619 864 1596 829 b 1389 511 969 274 896 280 b 878 272 889 127 945 3 b 993 -102 1078 -184 1188 -184 b 1273 -184 1377 -117 1413 -44 b 1427 -16 1408 -16 1400 -36 b 1363 -108 1271 -141 1193 -141 b 1115 -141 1056 -82 1014 15 b 964 129 942 264 954 259 b 1127 303 1461 550 1621 816 z m 1109 800 b 1077 790 1039 732 1032 720 b 945 712 825 710 716 686 b 307 594 428 200 652 282 b 723 308 774 410 746 480 b 740 494 726 497 728 487 b 740 423 712 325 645 300 b 459 233 433 574 728 656 b 821 682 929 686 1018 696 b 984 628 885 408 866 365 b 790 194 662 -46 377 -111 b 237 -142 -2 -78 26 140 b 38 230 108 283 126 291 b 134 295 135 307 119 305 b 93 302 23 257 4 185 b -61 -65 189 -200 416 -166 b 868 -98 897 426 1048 698 b 1209 715 1184 822 1109 800 z m 1110 735 b 1100 730 1086 726 1066 723 b 1076 735 1092 755 1105 765 b 1138 792 1154 756 1110 735 z"},"R":{"x_min":0,"x_max":1024,"ha":1024,"o":"m 1096 187 b 1106 209 1088 204 1079 187 b 1068 165 1031 86 983 38 b 911 -33 861 3 811 79 b 736 193 705 349 700 377 b 722 378 753 380 792 386 b 1109 438 1233 656 961 735 b 931 743 898 748 862 754 b 872 785 868 806 825 759 b 709 775 583 774 444 754 b 222 722 105 600 95 494 b 80 325 273 280 374 386 b 394 407 408 435 413 467 b 414 478 402 493 400 469 b 399 456 387 431 362 404 b 276 312 118 359 146 494 b 164 580 261 677 431 712 b 566 741 690 746 803 735 b 721 644 647 496 566 354 b 459 166 348 -17 171 -8 b 33 -1 70 195 230 134 b 247 128 254 139 236 146 b 3 226 -66 -11 146 -36 b 262 -51 373 -7 461 88 b 543 178 589 270 637 365 b 648 300 691 105 782 10 b 847 -58 932 -58 994 9 b 1037 56 1083 158 1096 187 z m 948 710 b 1144 651 991 442 784 416 b 736 410 697 410 658 403 b 716 519 787 619 850 729 b 886 723 919 718 948 710 z"},"T":{"x_min":0,"x_max":918,"ha":918,"o":"m 1400 610 b 1400 615 1397 631 1390 631 b 1381 631 1379 625 1379 616 b 1379 548 1136 615 1050 643 b 1063 656 1093 690 1102 683 b 1135 673 1127 722 1095 712 l 1096 712 b 1074 712 1031 662 1022 651 b 958 669 816 728 696 738 b 321 772 245 404 449 333 b 543 301 657 358 670 465 b 670 478 660 482 650 473 l 650 471 b 654 443 582 319 459 358 b 302 408 417 701 703 687 b 810 682 901 665 1006 632 b 964 576 833 223 712 92 b 636 9 529 -54 372 -58 b 218 -61 33 49 69 254 b 85 349 156 372 172 392 b 178 434 79 393 49 300 b -86 -127 548 -197 760 44 b 907 212 915 431 1035 622 b 1056 613 1139 577 1287 558 b 1350 550 1400 572 1400 610 z"},"P":{"x_min":0,"x_max":890,"ha":890,"o":"m 964 705 b 929 726 890 742 848 753 b 865 770 883 783 893 790 b 917 805 915 818 883 805 b 853 794 830 780 808 763 b 690 787 559 780 448 764 b 305 743 51 669 42 490 b 37 388 111 338 190 335 b 268 333 355 384 356 475 b 356 489 345 491 342 476 b 319 409 255 353 192 355 b 132 357 83 412 94 482 b 118 631 326 708 452 731 b 536 747 667 755 781 738 b 763 721 747 702 728 682 b 558 491 482 225 351 96 b 284 31 210 -12 121 -8 b -17 -1 23 193 183 133 b 200 126 207 138 186 146 b -40 222 -108 -12 96 -36 b 203 -49 305 -13 390 67 b 447 122 496 184 540 249 b 593 245 682 253 764 273 b 962 321 1216 555 964 705 z m 941 684 b 1098 579 949 363 732 297 b 669 278 605 268 554 270 b 651 419 727 586 829 729 b 872 719 911 704 941 684 z"},"|":{"x_min":0,"x_max":485,"ha":485,"o":"m 264 -231 l 264 749 l 221 749 l 221 -231 z"},"t":{"x_min":0,"x_max":200,"ha":200,"o":"m 303 380 l 255 380 b 270 408 284 436 298 466 b 372 626 264 643 195 522 b 170 479 145 430 122 380 l 62 380 b 51 380 49 358 60 358 l 112 358 b 80 280 43 171 34 103 b 19 -7 118 -24 172 28 b 209 65 226 92 270 184 b 280 204 265 208 257 190 b 230 136 197 73 151 39 b 118 15 72 24 87 91 b 87 91 101 167 110 193 b 169 247 209 300 243 358 l 301 358 b 311 358 313 380 303 380 z m 283 482 b 269 449 252 414 233 380 l 183 380 b 208 437 230 492 254 526 b 316 613 302 524 283 482 z m 220 358 b 191 310 157 264 119 225 b 133 260 152 309 173 358 z"},"M":{"x_min":0,"x_max":1329,"ha":1329,"o":"m 1374 -98 b 1141 -108 1327 305 1414 478 b 1529 708 1379 773 1148 484 b 1066 382 991 276 950 212 b 991 337 1036 458 1048 586 b 1064 756 899 716 822 623 b 751 537 717 486 659 381 b 642 349 633 354 646 392 b 671 458 691 528 698 591 b 735 989 189 791 45 455 b -55 217 134 70 282 131 b 498 221 519 471 352 447 b 304 441 329 424 347 426 b 506 447 411 198 283 150 b 151 102 14 212 98 445 b 195 711 695 991 640 593 b 617 430 481 90 396 -42 b 386 -74 462 -73 478 -36 b 615 268 665 389 839 605 b 918 703 1003 710 987 581 b 947 251 804 33 788 0 b 769 -29 841 -68 879 20 b 915 107 1085 370 1148 448 b 1328 673 1439 683 1359 499 b 1294 351 1213 196 1201 76 b 1185 -93 1317 -110 1358 -114 b 1398 -118 1412 -96 1374 -98 z"},"g":{"x_min":0,"x_max":392,"ha":392,"o":"m 463 184 b 473 204 457 210 448 192 b 438 173 423 130 390 86 b 370 59 344 38 320 21 b 341 100 346 184 333 264 b 317 252 285 270 271 224 b 252 161 155 8 96 33 b 44 56 100 177 173 259 b 234 327 308 367 334 296 b 345 266 380 296 345 325 b 270 384 172 350 113 279 b 39 191 -21 47 79 4 b 159 -20 239 115 271 177 b 274 166 274 134 270 95 b 266 55 259 19 247 -16 b 170 -47 79 -66 -19 -124 b -67 -152 -106 -190 -106 -239 b -106 -291 -75 -316 -12 -316 b 133 -316 265 -138 309 -12 b 383 23 412 79 463 184 z m 237 -45 b 223 -79 204 -112 180 -146 b 152 -183 121 -219 90 -244 b 66 -262 7 -296 -36 -296 b -119 -296 -83 -196 -18 -153 b 45 -111 129 -82 202 -57 z"},"j":{"x_min":0,"x_max":177,"ha":177,"o":"m 59 162 b 42 127 13 66 -11 18 b -20 -1 -32 -21 -43 -40 b -124 -63 -219 -80 -286 -112 b -325 -130 -361 -157 -380 -194 b -410 -250 -400 -316 -300 -316 b -152 -316 -53 -163 10 -50 b 154 2 180 45 248 184 b 258 204 243 211 234 193 b 224 174 206 133 174 86 b 129 20 87 5 27 -18 b 49 26 70 70 89 114 l 169 301 b 180 325 180 336 148 336 l 93 335 b 97 330 112 311 103 293 l 50 178 b 44 165 53 162 59 162 z m -62 -72 b -69 -85 -76 -98 -84 -109 b -129 -172 -236 -296 -324 -296 b -409 -296 -372 -178 -269 -134 b -212 -109 -126 -89 -62 -72 z m 211 418 b 215 441 199 459 176 459 b 154 459 132 441 128 418 b 125 395 140 377 163 377 b 186 377 207 395 211 418 z"},"i":{"x_min":0,"x_max":174,"ha":174,"o":"m 211 418 b 215 441 199 459 176 459 b 154 459 132 441 128 418 b 125 395 140 377 163 377 b 186 377 207 395 211 418 z m 70 85 b 72 92 82 114 82 114 l 162 301 b 173 325 173 336 141 336 l 86 335 b 90 330 104 312 96 293 l 32 130 b 11 78 11 0 86 0 b 160 0 217 127 243 183 b 252 203 238 210 230 192 b 202 136 169 74 136 41 b 125 31 106 20 91 22 b 63 24 61 52 70 85 z"},"y":{"x_min":0,"x_max":399,"ha":399,"o":"m 469 182 b 479 202 464 209 455 191 b 445 172 423 126 392 81 b 353 25 292 -5 248 -18 b 277 61 303 144 328 211 b 353 278 368 318 406 344 l 352 344 b 333 344 321 339 313 323 b 275 244 212 127 156 62 b 91 -13 49 27 97 131 b 125 191 153 250 187 308 b 199 329 215 336 224 344 l 163 344 b 144 344 132 339 124 323 b 109 292 88 251 68 213 l 50 178 b 44 165 53 162 59 162 b 41 126 16 89 25 46 b 33 8 68 1 88 1 b 165 1 230 125 264 185 b 248 133 216 26 178 -40 b 97 -63 2 -80 -65 -112 b -104 -130 -140 -157 -159 -194 b -189 -250 -179 -316 -79 -316 b 69 -316 168 -163 231 -50 b 375 2 401 44 469 182 z m 160 -72 l 138 -109 b 92 -172 -14 -296 -102 -296 b -188 -296 -150 -178 -48 -134 b 9 -109 95 -89 160 -72 z"},"@":{"x_min":0,"x_max":956,"ha":956,"o":"m 942 442 b 929 612 764 679 613 679 b 335 679 53 432 76 143 b 93 -64 267 -148 451 -148 b 572 -148 682 -107 778 -43 b 794 -36 779 -15 767 -27 b 678 -87 570 -126 458 -126 b 299 -126 139 -47 125 131 b 103 405 344 658 615 658 b 755 658 889 599 902 440 b 911 321 853 190 764 118 b 706 71 563 19 589 146 b 604 222 679 355 706 381 b 688 378 669 386 653 387 b 613 390 595 359 567 305 b 535 244 500 182 455 129 b 396 60 326 49 339 137 b 346 185 380 247 391 265 b 436 339 501 413 558 444 b 604 470 652 460 666 413 b 686 409 696 430 679 449 b 607 528 462 481 387 391 b 197 164 292 -57 437 82 b 474 118 508 167 528 200 b 490 68 565 42 607 45 b 656 45 733 69 769 98 b 869 178 953 307 942 442 z"},".":{"x_min":0,"x_max":208,"ha":208,"o":"m 185 27 b 189 50 173 68 151 68 b 128 68 106 50 103 27 b 99 4 114 -14 137 -14 b 160 -14 181 4 185 27 z"},"p":{"x_min":0,"x_max":336,"ha":336,"o":"m 307 350 b 239 369 158 231 128 182 b 141 216 155 269 156 302 b 158 351 149 346 120 343 b 112 342 71 335 71 335 b 95 330 84 254 65 210 b 60 198 50 175 45 165 b 38 151 57 157 68 174 b 50 83 -120 -242 -145 -266 b -131 -264 -116 -270 -103 -271 b -70 -273 -56 -262 -36 -219 l 59 18 b 130 -24 218 10 273 76 b 346 164 402 324 307 350 z m 280 194 b 226 95 116 -16 67 33 b 114 121 163 208 201 260 b 286 379 346 317 280 194 z"},"X":{"x_min":0,"x_max":807,"ha":807,"o":"m 1079 768 b 1124 812 1097 817 1081 817 b 1065 817 1043 793 1008 759 b 913 665 758 573 559 433 b 558 610 563 788 432 788 b 301 788 119 623 108 606 b 87 576 119 570 124 574 b 170 673 461 834 487 658 b 499 576 498 491 497 395 b 278 239 55 50 -103 -169 b -128 -203 -125 -220 -108 -220 b -94 -220 -71 -208 -47 -169 b 82 33 288 205 498 357 b 495 206 491 65 502 17 b 540 -159 731 -122 877 184 b 889 209 868 206 860 189 b 776 -5 621 -118 575 53 b 559 114 557 256 560 395 b 795 563 1004 695 1079 768 z"},"*":{"x_min":0,"x_max":431,"ha":431,"o":"m 392 389 l 256 389 l 341 481 b 367 509 354 538 334 517 l 218 400 l 159 515 b 142 547 112 540 125 514 b 146 470 165 428 182 389 l 37 389 b 1 389 18 343 36 344 l 168 349 l 68 248 b 41 221 84 203 97 216 l 206 335 l 256 223 b 273 190 302 231 294 247 b 275 283 258 317 241 352 l 373 357 b 408 358 420 389 392 389 z"},"Y":{"x_min":0,"x_max":959,"ha":959,"o":"m 1120 -29 b 1112 -3 1106 -13 1108 -28 b 1088 -139 912 -122 814 -128 b 888 3 957 231 992 385 b 1026 534 948 473 943 449 b 912 345 810 95 686 7 b 608 -49 516 -41 542 79 b 562 170 631 307 698 421 b 788 573 831 756 684 822 b 509 901 176 738 58 495 b -64 245 125 82 284 148 b 508 240 577 544 366 487 b 348 483 334 466 368 473 b 542 504 427 221 288 171 b 158 124 7 222 110 469 b 203 690 527 893 688 790 b 765 741 707 553 618 408 b 563 318 486 185 472 85 b 452 -67 598 -83 700 -14 b 793 49 865 176 903 258 b 867 124 818 -1 766 -129 b 621 -129 470 -137 334 -193 b 84 -296 261 -467 522 -367 b 624 -328 732 -255 799 -154 b 900 -153 996 -152 1048 -131 b 1109 -105 1128 -55 1120 -29 z m 752 -154 b 692 -250 596 -313 507 -346 b 347 -405 154 -347 350 -235 b 469 -166 617 -154 752 -154 z"},"c":{"x_min":0,"x_max":260,"ha":260,"o":"m 338 183 b 347 203 333 208 324 190 b 284 111 236 14 149 14 b 106 14 90 51 90 91 b 90 149 127 218 145 244 b 173 284 216 330 252 330 b 271 330 281 316 272 281 b 267 263 252 243 241 230 b 263 208 304 250 308 283 b 313 324 289 352 239 352 b 191 352 142 323 105 273 b 33 176 -19 -4 139 -4 b 249 -4 289 79 338 183 z"},"!":{"x_min":0,"x_max":350,"ha":350,"o":"m 540 611 l 538 617 l 533 619 b 507 618 464 626 450 599 l 196 115 l 195 108 l 205 107 b 242 163 529 581 540 611 z m 202 27 b 206 50 190 68 168 68 b 145 68 123 50 120 27 b 116 4 131 -14 154 -14 b 177 -14 198 4 202 27 z"},"/":{"x_min":0,"x_max":548,"ha":548,"o":"m 698 800 b 423 453 126 70 27 -17 b 7 -34 17 -50 44 -33 b 166 47 582 597 748 788 b 772 815 719 827 698 800 z"},"[":{"x_min":0,"x_max":585,"ha":585,"o":"m 583 682 b 583 718 516 718 492 718 l 472 718 b 407 718 379 688 339 642 b 229 514 38 196 38 28 b 38 -17 124 -17 154 -17 b 177 -17 278 -20 278 6 b 278 24 249 28 236 28 b 212 28 188 24 164 24 b 134 24 97 29 97 68 b 97 183 336 612 437 663 b 448 669 472 668 484 668 b 509 668 533 664 558 664 b 573 664 583 663 583 682 z"},"6":{"x_min":0,"x_max":421,"ha":421,"o":"m 433 577 l 426 588 l 420 587 b 281 491 37 278 37 96 b 37 29 79 -11 145 -11 b 261 -11 400 145 400 258 b 400 302 376 337 329 337 b 240 337 163 225 144 147 l 146 141 l 156 142 l 160 147 b 181 202 238 306 305 306 b 330 306 339 289 339 266 b 339 182 245 12 151 12 b 115 12 96 40 96 74 b 96 168 176 297 231 370 b 270 421 313 468 360 511 b 381 530 410 549 428 569 b 430 571 431 575 433 577 z"},"r":{"x_min":0,"x_max":260,"ha":260,"o":"m 330 183 b 340 203 327 210 318 193 b 297 150 235 25 194 26 b 134 29 236 212 251 243 b 263 268 279 306 272 320 b 223 315 171 314 134 316 b 151 328 183 355 189 383 b 203 450 138 475 128 419 b 108 307 53 156 -26 52 b -32 43 -26 32 -18 39 b 31 86 79 197 103 260 l 115 292 b 171 291 206 278 192 245 b 181 220 145 168 130 127 b 90 23 151 -7 185 1 b 250 17 301 123 330 183 z"},"2":{"x_min":0,"x_max":488,"ha":488,"o":"m 503 493 b 503 547 463 576 412 576 b 311 576 233 479 202 392 l 204 386 l 216 386 l 220 390 b 245 455 309 545 385 545 b 414 545 433 532 433 501 b 433 387 203 180 121 107 b 115 110 105 109 99 108 b 93 106 3 7 1 0 l 14 -8 l 84 47 b 108 37 211 -12 240 -12 b 293 -12 366 68 398 107 l 398 111 l 391 117 b 378 113 334 44 278 44 b 254 44 167 88 141 101 b 217 164 503 385 503 493 z"},"{":{"x_min":0,"x_max":369,"ha":369,"o":"m 421 726 l 417 726 b 351 726 302 714 271 691 b 210 644 197 520 183 454 b 173 404 158 370 136 353 b 115 335 77 324 21 318 b 21 318 -2 291 15 291 b 44 291 65 288 80 282 b 94 276 106 267 115 256 b 130 238 132 204 122 155 b 113 109 61 -48 105 -96 b 127 -119 171 -131 236 -131 l 241 -131 b 251 -131 256 -108 244 -109 b 199 -109 169 -101 154 -83 b 139 -66 137 -32 147 18 b 157 67 197 201 170 250 b 155 276 121 294 67 304 b 129 315 174 336 200 368 b 265 447 248 619 313 676 b 333 694 368 703 416 703 b 424 703 444 726 421 726 z"},"9":{"x_min":0,"x_max":435,"ha":435,"o":"m 438 456 b 438 517 409 577 340 577 b 225 577 74 399 74 286 b 74 242 99 208 145 208 b 233 208 306 330 334 402 l 333 407 l 322 408 l 318 405 b 295 350 251 266 181 266 b 146 266 131 290 131 322 b 131 410 228 556 323 556 b 365 556 378 524 378 487 b 378 463 374 438 368 415 b 322 235 211 98 62 -7 l 58 -13 l 63 -22 l 69 -22 b 212 72 438 270 438 456 z"}," ":{"x_min":0,"x_max":259,"ha":259,"o":""},"I":{"x_min":0,"x_max":912,"ha":912,"o":"m 1196 805 b 1195 832 1169 838 1139 829 b 1107 818 1070 763 1062 747 b 873 715 544 639 492 403 b 466 285 571 210 677 251 b 759 282 820 383 781 458 b 773 476 756 454 760 449 b 776 434 781 316 676 274 b 590 241 537 307 559 403 b 607 619 866 682 1046 721 b 1025 685 955 555 896 398 b 842 253 680 -41 389 -114 b 229 -154 -32 -80 21 138 b 42 221 107 284 142 299 b 152 304 162 314 141 313 b 109 311 29 248 4 182 b -90 -68 126 -193 408 -146 b 553 -122 693 -42 803 99 b 962 303 955 502 1077 726 b 1086 726 1107 735 1119 735 b 1157 748 1197 764 1196 805 z m 1148 801 b 1160 801 1182 769 1094 751 b 1109 770 1138 805 1148 801 z"},"H":{"x_min":0,"x_max":1381,"ha":1381,"o":"m 1523 750 b 1560 769 1515 763 1476 749 b 1397 722 1273 397 1258 355 b 1188 355 1053 372 919 372 b 936 415 1010 624 1048 698 b 1088 698 1166 725 1166 772 b 1166 800 1138 808 1109 800 b 1077 790 1039 732 1032 720 b 837 701 509 727 446 474 b 413 343 526 232 646 276 b 718 302 784 397 746 480 b 739 495 722 489 733 473 b 746 454 719 322 645 295 b 544 258 480 349 514 458 b 586 689 822 674 1018 696 b 997 654 922 497 872 372 l 833 372 b 807 369 780 349 771 334 b 756 308 787 318 798 323 b 817 332 837 339 858 339 b 792 165 661 -37 381 -100 b 241 -131 -2 -78 26 140 b 37 223 95 284 128 298 b 138 302 147 312 126 312 b 94 311 21 250 4 185 b -61 -65 163 -196 391 -167 b 649 -134 832 105 910 337 b 1001 333 1204 324 1249 324 b 1225 255 1125 14 1216 -33 b 1251 -51 1294 -40 1329 -6 b 1374 38 1399 72 1451 182 b 1462 206 1447 211 1436 189 b 1404 124 1362 46 1311 8 b 1289 -8 1268 -6 1255 8 b 1211 56 1289 265 1307 324 b 1336 326 1378 333 1404 351 b 1421 363 1415 370 1396 363 b 1380 357 1336 356 1316 356 b 1396 589 1504 740 1523 750 z m 1119 771 b 1131 771 1151 736 1066 723 b 1080 741 1109 776 1119 771 z"},"4":{"x_min":0,"x_max":464,"ha":464,"o":"m 485 562 l 484 569 l 477 572 b 424 562 407 569 374 526 b 331 469 286 416 239 363 b 191 309 127 252 83 197 b 81 195 80 192 79 190 l 79 182 l 322 188 b 313 172 222 5 222 -2 l 222 -6 l 227 -7 b 235 -7 286 3 291 8 b 302 19 373 167 385 191 l 414 192 l 421 197 l 426 208 l 420 212 l 396 212 b 403 224 463 340 463 345 l 462 351 l 456 354 b 438 353 408 354 399 335 l 334 209 l 117 205 b 149 234 487 530 485 562 z"},"~":{"x_min":0,"x_max":485,"ha":485,"o":"m 453 494 b 455 498 434 501 432 496 b 421 473 404 458 377 461 b 337 464 299 494 256 497 b 210 501 177 456 158 422 b 156 417 179 414 181 420 b 191 439 209 455 233 453 b 274 450 312 418 354 414 b 401 410 435 457 453 494 z"},"D":{"x_min":0,"x_max":1014,"ha":1014,"o":"m 1023 239 b 1042 429 954 579 818 669 b 830 691 879 772 906 772 b 913 772 919 782 906 785 b 878 791 826 754 775 694 b 671 749 546 772 423 754 b 11 694 5 404 180 343 b 268 312 377 368 391 467 b 394 486 372 486 371 476 b 369 441 308 330 190 367 b 42 413 126 660 403 719 b 527 745 649 722 747 663 b 590 488 515 214 367 72 b 335 89 253 132 215 146 b -10 224 -79 -12 125 -36 b 221 -48 302 -23 375 36 b 577 -78 992 -79 1023 239 z m 960 237 b 932 -20 592 -61 399 54 b 412 65 424 76 437 90 b 547 208 677 447 794 631 b 907 542 977 401 960 237 z m 341 52 b 286 12 222 -11 150 -8 b 28 -2 45 170 190 120 b 250 99 293 75 341 52 z"},"^":{"x_min":0,"x_max":370,"ha":370,"o":"m 403 391 l 398 399 b 357 433 319 470 288 513 l 282 516 b 260 513 121 411 118 393 l 124 386 b 142 389 239 459 260 474 b 279 448 359 382 391 382 b 396 382 403 384 403 391 z"},"0":{"x_min":0,"x_max":502,"ha":502,"o":"m 505 468 b 505 530 481 579 412 579 b 244 579 52 271 52 119 b 52 51 86 -11 161 -11 b 342 -11 505 310 505 468 z m 467 487 b 467 367 309 9 173 9 b 126 9 112 43 112 84 b 112 197 282 560 413 560 b 456 560 467 524 467 487 z"},"F":{"x_min":0,"x_max":1048,"ha":1048,"o":"m 1386 572 b 1392 597 1382 609 1368 577 b 1330 496 1107 580 1040 615 b 1054 628 1077 643 1100 634 b 1122 609 1126 650 1100 658 b 1055 671 1027 639 1016 627 b 954 666 858 713 748 743 b 419 836 247 509 413 415 b 493 369 619 405 648 502 b 660 538 632 520 631 498 b 632 470 523 375 422 438 b 331 495 458 746 731 705 b 829 691 918 652 1003 610 b 984 588 905 463 858 348 b 762 365 656 369 610 267 b 605 256 614 242 626 258 b 673 326 806 311 844 311 b 749 93 590 -93 368 -83 b 222 -77 41 30 76 226 b 88 294 128 324 153 342 b 183 363 204 378 172 368 b 143 359 86 321 68 264 b -3 46 147 -130 380 -130 b 703 -130 811 121 880 308 b 931 302 1047 304 1082 313 b 1113 321 1114 335 1080 333 b 1039 331 953 331 892 339 b 920 404 961 524 1025 597 b 1044 589 1143 530 1259 511 b 1327 501 1380 531 1386 572 z"},"`":{"x_min":0,"x_max":211,"ha":211,"o":"m 193 408 b 193 415 47 534 28 534 b 17 534 9 525 9 513 b 9 491 28 477 46 468 b 65 459 174 399 183 399 b 188 399 193 402 193 408 z"},"k":{"x_min":0,"x_max":363,"ha":363,"o":"m 262 569 b 176 441 44 142 -24 52 b -30 43 -24 32 -16 39 b 4 58 44 130 90 217 b 60 148 26 91 8 22 b 4 9 2 0 16 0 l 79 0 b 62 14 89 122 107 156 b 134 194 163 224 189 247 b 304 345 348 275 285 224 b 262 205 228 192 206 194 b 184 192 147 144 159 79 b 169 27 200 -2 236 -6 b 294 -12 356 4 435 186 b 442 202 430 211 422 195 b 394 137 366 85 341 58 b 249 -40 185 85 223 178 b 267 182 294 196 324 217 b 400 271 412 383 283 335 b 225 313 162 247 120 195 b 130 225 143 254 156 280 b 223 413 325 575 376 614 b 362 611 347 617 334 618 l 329 618 b 307 619 286 604 262 569 z"},"u":{"x_min":0,"x_max":357,"ha":357,"o":"m 428 184 b 438 204 422 211 414 193 b 380 121 330 26 281 26 b 267 27 253 43 262 86 b 268 120 301 189 329 245 b 359 307 369 321 398 344 l 344 344 b 325 344 313 339 305 323 b 267 244 212 127 156 62 b 91 -13 49 27 97 131 b 115 169 160 260 160 260 b 187 315 201 327 224 344 l 163 344 b 144 344 132 339 124 323 b 109 292 88 251 68 213 l 50 178 b 44 165 53 162 59 162 b 41 126 16 89 25 46 b 33 8 68 1 88 1 b 137 1 189 69 223 129 b 197 48 224 1 269 1 b 342 1 396 116 428 184 z"},"]":{"x_min":0,"x_max":556,"ha":556,"o":"m 548 670 b 548 713 520 716 485 716 b 445 716 352 717 339 667 l 342 665 b 379 665 416 669 453 669 b 464 669 475 669 486 665 b 488 655 489 645 489 635 b 489 489 348 186 251 77 b 172 -12 31 61 17 -12 b 32 -19 72 -17 92 -17 b 152 -17 230 -16 275 29 b 411 166 548 477 548 670 z"},"U":{"x_min":0,"x_max":942,"ha":942,"o":"m 986 482 b 974 482 952 468 930 429 b 889 355 829 214 762 117 b 652 -42 550 -59 539 45 b 524 191 681 419 717 577 b 742 687 730 788 632 830 b 543 869 420 849 306 786 b -181 520 -20 29 279 156 b 500 249 532 578 326 491 b 318 488 279 462 331 474 b 522 517 417 230 280 179 b 2 75 -96 519 304 753 b 418 819 555 848 637 798 b 685 769 682 677 658 581 b 621 436 460 180 482 45 b 503 -83 644 -82 777 89 b 802 121 823 154 838 179 b 821 93 803 -68 897 -85 b 928 -90 952 -58 904 -62 b 849 -65 861 57 890 165 b 909 236 937 299 950 327 b 977 388 1035 458 986 482 z"},"o":{"x_min":0,"x_max":335,"ha":335,"o":"m 408 188 b 415 203 398 207 393 197 b 369 149 317 25 253 25 b 229 25 214 35 206 50 b 244 86 275 133 290 168 b 328 257 317 349 241 350 b 173 352 90 274 51 182 b 13 93 24 2 100 0 b 129 -1 159 13 187 34 b 200 19 221 8 251 8 b 335 8 391 150 408 188 z m 262 317 b 298 306 293 235 254 153 b 245 134 234 115 223 99 b 224 103 225 106 225 110 b 225 126 212 140 195 140 b 170 140 161 120 160 97 b 160 82 165 64 176 48 b 152 28 127 18 108 23 b 72 34 81 104 120 186 b 157 265 219 329 262 317 z"},"N":{"x_min":0,"x_max":1039,"ha":1039,"o":"m 1188 668 b 1190 777 1076 780 982 736 b 905 701 820 619 745 528 b 695 468 649 404 613 348 b 594 319 556 246 608 359 b 642 434 682 515 691 592 b 721 838 466 823 301 733 b 186 670 75 569 27 454 b -57 250 51 122 178 122 b 443 122 573 499 336 442 b 326 440 318 424 338 426 b 516 449 391 141 181 141 b -17 141 17 507 312 690 b 484 797 684 817 626 554 b 578 342 422 30 373 -42 b 365 -74 439 -72 456 -36 b 521 100 624 341 765 512 b 836 597 913 659 987 694 b 1057 728 1121 727 1109 657 b 1093 554 909 217 874 113 b 820 -49 860 -140 996 -146 b 1069 -149 1087 -76 1018 -108 b 903 -161 869 -38 960 161 b 1059 377 1186 549 1188 668 z"},"+":{"x_min":0,"x_max":458,"ha":458,"o":"m 461 238 b 418 239 370 238 331 239 b 339 280 352 351 361 388 b 367 415 339 407 333 384 b 322 344 307 276 298 239 b 245 240 181 242 159 242 b 129 242 132 192 147 194 b 176 197 241 199 288 203 b 275 149 259 91 254 68 b 247 39 300 54 302 68 b 305 98 317 156 325 205 b 368 208 420 211 458 211 b 485 211 483 237 461 238 z"},"G":{"x_min":0,"x_max":699,"ha":699,"o":"m 770 -112 b 710 -97 640 -87 551 -86 b 624 34 673 133 687 244 b 694 295 626 335 568 199 b 540 132 358 26 226 69 b 109 107 70 272 158 462 b 222 419 324 391 421 393 b 844 399 912 766 603 814 b 442 839 240 741 134 568 b 126 555 118 542 112 529 b 51 602 39 698 105 781 b 121 802 106 804 92 789 b 0 695 19 579 96 499 b -12 272 67 79 192 36 b 357 -19 546 120 606 177 l 602 160 b 581 67 550 -3 501 -86 b 438 -87 341 -94 289 -102 b 40 -137 -161 -297 25 -365 b 137 -406 409 -297 537 -112 b 617 -111 716 -118 762 -130 b 800 -139 799 -119 770 -112 z m 608 784 b 853 747 774 458 437 424 b 335 414 233 441 171 488 b 180 506 191 525 202 543 b 296 697 472 804 608 784 z m 485 -113 b 368 -281 140 -359 51 -339 b -96 -308 124 -156 301 -129 b 357 -120 422 -115 485 -113 z"},"q":{"x_min":0,"x_max":342,"ha":342,"o":"m 366 253 b 352 251 336 257 324 257 b 298 259 289 251 263 207 b 237 165 149 10 96 33 b 1 75 277 451 334 296 b 345 266 380 296 344 325 b 270 384 172 350 113 279 b 39 191 -21 47 78 4 b 121 -9 161 23 189 56 b 198 68 253 147 259 158 b 217 64 189 25 108 -162 b 88 -206 80 -233 102 -257 b 110 -266 124 -275 131 -287 b 140 -225 289 135 366 253 z"},"d":{"x_min":0,"x_max":367,"ha":367,"o":"m 552 622 b 537 620 522 625 509 626 b 477 629 460 619 441 574 b 417 520 373 428 325 337 b 253 379 166 344 110 279 b 37 191 -18 30 76 4 b 145 -14 192 66 222 115 b 212 74 220 44 231 27 b 244 8 260 0 276 0 b 356 0 414 130 438 186 b 447 206 431 210 423 192 b 402 150 344 26 294 26 b 247 26 278 110 288 133 b 346 271 522 594 552 622 z m 317 321 b 270 233 220 147 183 95 b 98 -25 38 37 104 161 b 157 259 267 370 317 321 z"},"1":{"x_min":0,"x_max":378,"ha":378,"o":"m 426 563 l 426 568 b 424 569 422 570 420 569 l 389 566 b 372 564 355 545 344 533 b 287 473 228 430 161 379 l 159 373 l 163 365 l 167 365 b 226 401 279 442 330 488 b 240 328 151 167 60 6 l 61 0 b 63 0 68 -2 70 -2 b 82 -1 112 -1 122 5 l 421 553 z"},"5":{"x_min":0,"x_max":445,"ha":445,"o":"m 507 576 l 503 578 b 443 532 334 579 273 554 b 260 543 122 303 113 276 l 113 270 l 119 268 b 161 289 202 324 251 324 b 292 324 316 301 316 260 b 316 148 172 6 60 6 b 40 6 17 8 -2 15 l -6 13 l -12 6 l -12 -1 b 4 -12 40 -13 59 -13 b 186 -13 383 125 383 263 b 383 323 338 350 283 350 b 238 350 186 330 149 305 l 259 496 b 343 491 471 479 507 576 z"}}}
